<svg width="250" height="250" viewBox="0 0 250 250" fill="none" xmlns="http://www.w3.org/2000/svg"><path d="M128.244 11.195 125 8.43l-3.244 2.766L108.734 22.3l-15.816-6.536-3.94-1.629-2.23 3.634-8.955 14.584-17.061-1.329-4.25-.33-1 4.144-4.008 16.637-16.637 4.009-4.145.998.331 4.25 1.33 17.062-14.585 8.954-3.634 2.23 1.629 3.94 6.536 15.817-11.104 13.022L8.43 125l2.766 3.244L22.3 141.266l-6.536 15.816-1.629 3.94 3.634 2.231 14.584 8.953-1.329 17.062-.33 4.251 4.144.998 16.637 4.009 4.009 16.637.998 4.145 4.25-.331 17.062-1.329 8.954 14.584 2.23 3.633 3.94-1.628 15.817-6.536 13.022 11.104 3.244 2.766 3.244-2.766 13.022-11.104 15.816 6.536 3.94 1.628 2.231-3.633 8.953-14.584 17.062 1.329 4.251.331.998-4.145 4.009-16.637 16.637-4.009 4.145-.998-.331-4.251-1.329-17.062 14.584-8.953 3.633-2.231-1.628-3.94-6.536-15.816 11.104-13.022 2.766-3.244-2.766-3.244-11.104-13.022 6.536-15.816 1.628-3.94-3.633-2.23-14.584-8.955 1.329-17.061.331-4.25-4.145-1-16.637-4.008-4.009-16.637-.998-4.145-4.251.331-17.062 1.33-8.953-14.585-2.231-3.634-3.94 1.629-15.816 6.536-13.022-11.104Z" stroke="#301014" stroke-width="10"/></svg>
